<?xml version="1.0" standalone="no"?>
<!DOCTYPE svg PUBLIC "-//W3C//DTD SVG 20010904//EN"
 "http://www.w3.org/TR/2001/REC-SVG-20010904/DTD/svg10.dtd">
<svg version="1.0" xmlns="http://www.w3.org/2000/svg"
 width="500.000000pt" height="500.000000pt" viewBox="0 0 500.000000 500.000000"
 preserveAspectRatio="xMidYMid meet">
<metadata>
Created by potrace 1.14, written by Peter Selinger 2001-2017
</metadata>
<g transform="translate(0.000000,500.000000) scale(0.100000,-0.100000)"
fill="#000000" stroke="none">
<path d="M0 2500 l0 -2500 2500 0 2500 0 0 2500 0 2500 -2500 0 -2500 0 0
-2500z m2799 1259 l-63 -72 39 -35 c155 -135 185 -152 270 -152 63 1 114 30
246 146 154 133 171 147 138 109 -251 -289 -266 -312 -256 -409 7 -73 19 -92
151 -243 64 -73 116 -135 116 -138 0 -3 -60 47 -132 111 -73 63 -151 125 -173
136 -57 30 -140 29 -199 -3 -28 -15 -202 -175 -453 -419 -576 -558 -689 -666
-602 -575 97 103 661 686 845 875 86 88 148 161 158 184 21 50 20 141 -2 188
-9 21 -50 76 -91 123 l-75 86 -62 -68 c-109 -118 -109 -163 -3 -283 38 -43 69
-82 69 -85 0 -4 -30 20 -67 52 -38 33 -79 67 -93 76 -29 20 -95 22 -128 4 -13
-7 -152 -139 -310 -293 -503 -491 -545 -527 -212 -186 179 183 364 375 413
427 84 92 87 97 87 143 0 54 -8 67 -94 166 -69 80 -60 78 35 -5 100 -89 146
-99 220 -50 24 17 64 50 89 75 l44 46 -39 40 c-48 49 -35 53 15 5 l37 -36 69
65 c38 36 71 65 73 66 1 0 -25 -32 -60 -71z m190 -950 c46 -18 88 -1 166 67
41 36 75 63 75 59 0 -3 -29 -39 -65 -80 -57 -66 -65 -80 -65 -116 0 -51 9 -68
84 -154 63 -71 50 -67 -48 18 -62 55 -114 69 -160 45 -15 -8 -164 -148 -331
-311 -356 -348 -442 -424 -195 -171 97 98 249 254 338 345 l162 166 0 51 c0
47 -4 56 -52 113 -86 100 -87 108 -9 41 41 -35 86 -68 100 -73z m-1616 -1099
c10 -10 8 -11 -8 -5 -11 5 -38 10 -60 12 -49 5 -85 -23 -85 -67 0 -48 10 -60
80 -95 109 -55 134 -106 87 -176 -31 -47 -85 -64 -149 -48 -27 6 -51 16 -55
22 -4 7 0 8 13 3 98 -41 174 -13 174 64 0 44 -24 69 -98 100 -99 42 -121 113
-57 177 34 34 38 35 91 31 30 -3 60 -11 67 -18z m1781 -1 c8 -8 6 -10 -9 -6
-90 24 -150 18 -196 -20 -48 -41 -63 -79 -62 -160 1 -116 47 -173 146 -181 87
-7 97 4 97 98 l0 79 -32 4 c-23 3 -16 4 20 5 l52 2 0 -85 c0 -104 -7 -110
-126 -110 -71 0 -85 3 -121 27 -67 44 -96 130 -77 226 10 49 68 110 122 127
52 17 168 13 186 -6z m-1481 4 l-63 -4 0 -184 c0 -178 -1 -185 -20 -185 -19 0
-20 7 -20 185 l0 184 -62 4 c-35 2 2 3 82 3 80 0 117 -1 83 -3z m361 -186 c42
-99 76 -181 76 -183 0 -2 -10 -4 -22 -4 -19 0 -29 13 -53 73 l-31 72 -76 3
-75 3 -33 -76 c-19 -41 -38 -75 -42 -75 -5 0 -7 3 -5 8 5 7 107 236 149 331
11 26 22 40 27 35 5 -5 43 -89 85 -187z m311 179 c18 -8 38 -23 44 -34 29 -54
-4 -125 -67 -147 l-30 -10 69 -87 c68 -87 69 -88 41 -88 -23 0 -40 15 -97 87
-39 48 -76 89 -82 91 -10 3 -13 -19 -13 -87 0 -90 0 -91 -25 -91 l-25 0 0 190
0 190 75 0 c43 0 90 -6 110 -14z m175 -171 l0 -184 83 -4 82 -3 -102 -2 -103
-2 0 190 c0 183 1 190 20 190 19 0 20 -7 20 -185z m260 -5 l0 -190 -25 0 -25
0 0 190 0 190 25 0 25 0 0 -190z m490 100 l0 -90 90 0 90 0 0 90 c0 83 1 90
20 90 19 0 20 -7 20 -190 0 -183 -1 -190 -20 -190 -19 0 -20 7 -20 95 l0 95
-90 0 -90 0 0 -95 c0 -88 -1 -95 -20 -95 -19 0 -20 7 -20 190 0 183 1 190 20
190 19 0 20 -7 20 -90z m498 83 l-58 -4 0 -184 0 -185 -25 0 -25 0 0 185 0
184 -62 4 c-35 2 2 3 82 3 80 0 119 -1 88 -3z"/>
<path d="M1895 1588 c-15 -35 -29 -69 -32 -75 -4 -10 12 -13 61 -13 36 0 66 4
66 9 0 12 -58 141 -63 141 -3 0 -17 -28 -32 -62z"/>
<path d="M2210 1620 l0 -90 44 0 c66 0 96 28 96 90 0 62 -30 90 -96 90 l-44 0
0 -90z"/>
</g>
</svg>
